<?xml version="1.0" encoding="utf-8"?>
<!-- Generator: Adobe Illustrator 21.0.0, SVG Export Plug-In . SVG Version: 6.00 Build 0)  -->
<!DOCTYPE svg PUBLIC "-//W3C//DTD SVG 1.1//EN" "http://www.w3.org/Graphics/SVG/1.1/DTD/svg11.dtd">
<svg version="1.1" id="Layer_1" xmlns="http://www.w3.org/2000/svg" xmlns:xlink="http://www.w3.org/1999/xlink" x="0px" y="0px"
	 viewBox="0 0 268.6 255.4" style="enable-background:new 0 0 268.6 255.4;" xml:space="preserve">
<style type="text/css">
	.st0{fill:none;}
	.st1{fill:#231F20;}
</style>
<polygon class="st0" points="231.6,109.6 166,109.6 157.3,109.6 154.6,101.3 134.3,38.8 114,101.3 111.3,109.6 102.6,109.6 
	36.9,109.6 90,148.1 97.1,153.3 94.4,161.6 74.1,224 127.2,185.4 134.3,180.3 141.3,185.4 194.4,224 174.2,161.6 171.5,153.3 
	178.5,148.1 "/>
<path class="st1" d="M166,97.6L134.3,0l-31.7,97.6H0l83,60.3l-31.7,97.6l83-60.3l83,60.3l-31.7-97.6l83-60.3H166z M174.2,161.6
	l20.3,62.4l-53.1-38.6l-7.1-5.1l-7.1,5.1L74.1,224l20.3-62.4l2.7-8.3l-7.1-5.1l-53.1-38.6h65.6h8.7l2.7-8.3l20.3-62.4l20.3,62.4
	l2.7,8.3h8.7h65.6l-53.1,38.6l-7.1,5.1L174.2,161.6z"/>
</svg>
