<?xml version="1.0" encoding="utf-8"?>
<!-- Generator: Adobe Illustrator 21.0.0, SVG Export Plug-In . SVG Version: 6.00 Build 0)  -->
<!DOCTYPE svg PUBLIC "-//W3C//DTD SVG 1.1//EN" "http://www.w3.org/Graphics/SVG/1.1/DTD/svg11.dtd">
<svg version="1.1" id="Layer_1" xmlns="http://www.w3.org/2000/svg" xmlns:xlink="http://www.w3.org/1999/xlink" x="0px" y="0px"
	 viewBox="0 0 264.4 264.4" style="enable-background:new 0 0 264.4 264.4;" xml:space="preserve">
<style type="text/css">
	.st0{fill:#FFE919;}
</style>
<g>
	<path d="M132.2,0C59.3,0,0,59.3,0,132.2c0,72.9,59.3,132.2,132.2,132.2c72.9,0,132.2-59.3,132.2-132.2C264.4,59.3,205.1,0,132.2,0z
		 M199.9,226.9l-67.7-49.2l-67.7,49.2l25.9-79.6L22.7,98.1h83.7l25.9-79.6l25.9,79.6h83.7l-67.7,49.2L199.9,226.9z"/>
	<polygon class="st0" points="158.1,98.1 132.2,18.5 106.4,98.1 22.7,98.1 90.4,147.3 64.6,226.9 132.2,177.7 199.9,226.9 
		174.1,147.3 241.8,98.1 	"/>
</g>
</svg>
